<?xml version="1.0" encoding="utf-8"?>
<!-- Generator: Adobe Illustrator 26.5.0, SVG Export Plug-In . SVG Version: 6.00 Build 0)  -->
<svg version="1.1" id="Warstwa_1" xmlns="http://www.w3.org/2000/svg" xmlns:xlink="http://www.w3.org/1999/xlink" x="0px" y="0px"
	 viewBox="0 0 486.11 198.65" style="enable-background:new 0 0 486.11 198.65;" xml:space="preserve">
<style type="text/css">
	.st0{fill:url(#SVGID_1_);}
	.st1{fill:#FFFFFF;}
	.st2{fill:none;}
	.st3{fill:#FD5863;}
	.st4{fill:url(#SVGID_00000150788552365860738220000003557223096131595913_);}
	.st5{fill:url(#SVGID_00000147216650321796929110000005551872707442094471_);}
	.st6{fill:url(#SVGID_00000151535461527300804850000004244025967230690958_);}
	.st7{fill:url(#SVGID_00000138566735852983678320000011453631318458235053_);}
	.st8{fill:url(#SVGID_00000173142495589682745720000017071107497948879793_);}
	.st9{fill:url(#SVGID_00000026124011330336990140000003620485791504009401_);}
	.st10{fill:#F7F7F7;}
	.st11{fill:#F77A43;}
	.st12{fill:url(#SVGID_00000023986862459600879870000017632426733045337773_);}
	.st13{fill:url(#SVGID_00000068635867531692460420000008500710196719457963_);}
	.st14{fill:url(#SVGID_00000023987168394516222780000006338830882473856398_);}
	.st15{fill:url(#SVGID_00000154412433913359270610000010575552692112361612_);}
	.st16{fill:url(#SVGID_00000046305328172052100480000006330296203696344732_);}
	.st17{fill:url(#SVGID_00000158725790956686385450000007385812259064538519_);}
	.st18{fill:url(#SVGID_00000095340920318067206600000004148490681933984420_);}
	.st19{fill:url(#SVGID_00000018931007631042825200000005426910174372655274_);}
</style>
<g>
	<linearGradient id="SVGID_1_" gradientUnits="userSpaceOnUse" x1="46.134" y1="133.3289" x2="418.5162" y2="25.0996">
		<stop  offset="0" style="stop-color:#E34779"/>
		<stop  offset="1" style="stop-color:#F77A43"/>
	</linearGradient>
	<path class="st0" d="M94.04,77.08c-6.59,0-11.49,2.7-14.19,7.43V78.6H63.45v94.62h16.39V132.5c3.21,5.07,7.6,7.6,14.02,7.6
		c10.98,0,21.29-9.29,21.29-30.58v-1.86C115.16,86.38,105.02,77.08,94.04,77.08z M98.26,109.36c0,10.48-3.38,16.56-9.46,16.56
		c-5.91,0-9.29-6.08-9.29-16.56v-1.52c0-10.48,3.38-16.56,9.29-16.56c6.08,0,9.46,6.08,9.46,16.56V109.36z"/>
	
		<linearGradient id="SVGID_00000015324434865687531040000010918016391248014210_" gradientUnits="userSpaceOnUse" x1="47.3233" y1="137.4207" x2="419.7054" y2="29.1914">
		<stop  offset="0" style="stop-color:#E34779"/>
		<stop  offset="1" style="stop-color:#F77A43"/>
	</linearGradient>
	<path style="fill:url(#SVGID_00000015324434865687531040000010918016391248014210_);" d="M152.16,102.26
		c-6.59-3.89-9.46-5.24-9.46-8.28v-0.34c0-2.2,2.03-3.72,5.07-3.72c3.72,0,6.42,1.52,8.28,3.04l7.6-10.64
		c-4.39-3.38-9.29-5.24-16.39-5.24c-11.66,0-19.26,6.76-19.26,17.07v0.68c0,8.62,5.07,13.85,12.17,18.25
		c7.43,4.73,10.31,6.25,10.31,8.95v0.51c0,2.53-1.86,4.39-6.25,4.39c-4.39,0-7.94-2.37-10.31-5.07l-8.62,10.31
		c4.73,5.41,11.15,7.94,19.94,7.94c13.01,0,20.78-7.27,20.78-17.57v-0.85C166.01,112.9,160.44,107.16,152.16,102.26z"/>
	
		<linearGradient id="SVGID_00000120552917947627497820000007700618979351121036_" gradientUnits="userSpaceOnUse" x1="50.5734" y1="148.6032" x2="422.9555" y2="40.3739">
		<stop  offset="0" style="stop-color:#E34779"/>
		<stop  offset="1" style="stop-color:#F77A43"/>
	</linearGradient>
	
		<rect x="180.03" y="78.6" style="fill:url(#SVGID_00000120552917947627497820000007700618979351121036_);" width="16.39" height="59.98"/>
	
		<linearGradient id="SVGID_00000029736906979276738630000013373124728642068393_" gradientUnits="userSpaceOnUse" x1="54.3701" y1="161.6667" x2="426.7523" y2="53.4374">
		<stop  offset="0" style="stop-color:#E34779"/>
		<stop  offset="1" style="stop-color:#F77A43"/>
	</linearGradient>
	<path style="fill:url(#SVGID_00000029736906979276738630000013373124728642068393_);" d="M252.76,79.44
		c0.21,0.81-0.22,1.82-1.31,1.82c-1.66,0-1.8-2.36-0.42-2.76c-2.05-0.93-4.34-1.41-6.8-1.41c-6.42,0-11.49,2.87-14.7,8.28V78.6
		h-16.39v59.98h16.39v-37.68c0-5.91,3.21-8.62,8.11-8.62c3.89,0,6.76,2.53,6.76,7.43v38.86h16.39V97.87
		C260.8,88.65,257.65,82.52,252.76,79.44z"/>
	
		<linearGradient id="SVGID_00000113315200778255499210000010422583001832009883_" gradientUnits="userSpaceOnUse" x1="52.8734" y1="156.5168" x2="425.2555" y2="48.2875">
		<stop  offset="0" style="stop-color:#E34779"/>
		<stop  offset="1" style="stop-color:#F77A43"/>
	</linearGradient>
	<path style="fill:url(#SVGID_00000113315200778255499210000010422583001832009883_);" d="M310.13,84.35
		c-2.7-4.56-7.6-7.27-14.19-7.27c-10.98,0-21.12,9.29-21.12,30.58v1.86c0,21.29,10.31,30.58,21.29,30.58
		c6.42,0,10.81-2.53,14.02-7.6v6.08h16.39V20.14h-16.39V84.35z M310.47,109.36c0,10.48-3.38,16.56-9.29,16.56
		c-6.08,0-9.46-6.08-9.46-16.56v-1.52c0-10.48,3.38-16.56,9.46-16.56c5.91,0,9.29,6.08,9.29,16.56V109.36z"/>
	
		<linearGradient id="SVGID_00000095315330429297430770000006229455572740803978_" gradientUnits="userSpaceOnUse" x1="64.6862" y1="197.161" x2="437.0684" y2="88.9317">
		<stop  offset="0" style="stop-color:#E34779"/>
		<stop  offset="1" style="stop-color:#F77A43"/>
	</linearGradient>
	<path style="fill:url(#SVGID_00000095315330429297430770000006229455572740803978_);" d="M367.07,77.08
		c-15.38,0-25.68,12-25.68,30.75v1.52c0,18.92,9.63,30.75,28.55,30.75c8.79,0,14.7-2.53,18.59-5.07l-6.42-12.84
		c-2.37,1.52-6.59,3.55-12,3.55c-7.27,0-10.81-3.55-11.66-11.32h32.78V108C391.23,89.59,383.29,77.08,367.07,77.08z M358.28,102.6
		c0.84-7.77,4.05-12,8.79-12c4.73,0,7.1,3.72,7.6,12H358.28z"/>
	
		<linearGradient id="SVGID_00000026146670772475797360000003589583547126981039_" gradientUnits="userSpaceOnUse" x1="68.1556" y1="209.098" x2="440.5378" y2="100.8687">
		<stop  offset="0" style="stop-color:#E34779"/>
		<stop  offset="1" style="stop-color:#F77A43"/>
	</linearGradient>
	<path style="fill:url(#SVGID_00000026146670772475797360000003589583547126981039_);" d="M434.31,77.42c-4.9,0-9.46,2.7-12.17,8.62
		V78.6h-16.39v59.98h16.39v-32.44c0-10.64,4.22-13.35,9.63-13.35c1.86,0,3.21,0.51,4.9,1.01l3.89-14.7
		C438.71,78.1,436.85,77.42,434.31,77.42z"/>
	
		<linearGradient id="SVGID_00000051371962329304803900000004810122998233945759_" gradientUnits="userSpaceOnUse" x1="33.1916" y1="88.7983" x2="405.5738" y2="-19.431">
		<stop  offset="0" style="stop-color:#E34779"/>
		<stop  offset="1" style="stop-color:#F77A43"/>
	</linearGradient>
	<path style="fill:url(#SVGID_00000051371962329304803900000004810122998233945759_);" d="M206.7,35.43
		c-3.01-6.56-7.97-11.25-14.3-14.57c-0.29-0.15-0.62-0.5-0.94-0.29c-0.36,0.24-0.13,0.69-0.08,1.03c0.4,2.42,0.23,4.83-0.28,7.19
		c-0.96,4.49-3.73,7.51-7.95,9.26c-0.69,0.29-1,0.1-1.3-0.51c-0.87-1.72-1.23-3.57-1.42-5.46c-0.09-0.91-0.22-0.98-1.03-0.49
		c-0.85,0.51-1.57,1.18-2.36,1.76c-1.47,1.46-2.73,3.08-3.74,4.89c-1.08,1.92-1.94,3.96-2.15,6.15c-0.19,1.92-0.01,3.88,0.4,5.79
		c1.21,5.56,4.16,9.87,9.29,12.46c0.33,0.17,0.66,0.31,0.99,0.46c1.72,1.55,3.97,2.47,6.31,2.47c1.65,0,3.2-0.4,4.54-1.12
		c6.54-0.99,11.37-4.4,14.38-10.39c1.16-2.32,1.66-4.82,1.87-7.39c-0.04-1.01-0.06-2.02-0.13-3.02
		C208.59,40.8,207.9,38.04,206.7,35.43z"/>
</g>
</svg>
