<?xml version="1.0" encoding="utf-8"?>
<!-- Generator: Adobe Illustrator 26.5.0, SVG Export Plug-In . SVG Version: 6.00 Build 0)  -->
<svg version="1.1" id="Warstwa_1" xmlns="http://www.w3.org/2000/svg" xmlns:xlink="http://www.w3.org/1999/xlink" x="0px" y="0px"
	 viewBox="0 0 376.05 407.41" style="enable-background:new 0 0 376.05 407.41;" xml:space="preserve">
<style type="text/css">
	.st0{fill:url(#SVGID_1_);}
	.st1{fill:#FFFFFF;}
	.st2{fill:none;}
	.st3{fill:#FD5863;}
	.st4{fill:url(#SVGID_00000137131244488690061490000004271086863290396075_);}
	.st5{fill:url(#SVGID_00000004529496033426704970000004646679678383651736_);}
	.st6{fill:url(#SVGID_00000057842313178674588410000002102848733041140405_);}
	.st7{fill:url(#SVGID_00000181071620595466395220000008166794018146262434_);}
	.st8{fill:url(#SVGID_00000124145853736851786730000001936994546454482049_);}
	.st9{fill:url(#SVGID_00000054981154340887493050000009111049728624047002_);}
	.st10{fill:#F7F7F7;}
	.st11{fill:#F77A43;}
	.st12{fill:url(#SVGID_00000056399286973670900220000014779013358554214827_);}
	.st13{fill:url(#SVGID_00000064313962702408994630000006351591828399511229_);}
	.st14{fill:url(#SVGID_00000116217991209791741850000006924955192503625903_);}
	.st15{fill:url(#SVGID_00000144338576541952744250000012970179554622080137_);}
	.st16{fill:url(#SVGID_00000173859689608886373140000006998610501552440496_);}
	.st17{fill:url(#SVGID_00000035510814646586168410000001514210477706512051_);}
	.st18{fill:url(#SVGID_00000100365250457405184460000000524523340572541345_);}
	.st19{fill:url(#SVGID_00000080905166357553021220000017366968370268624289_);}
</style>
<g>
	<linearGradient id="SVGID_1_" gradientUnits="userSpaceOnUse" x1="56.7035" y1="290.6844" x2="261.2209" y2="84.8035">
		<stop  offset="0" style="stop-color:#E34779"/>
		<stop  offset="1" style="stop-color:#F77A43"/>
	</linearGradient>
	<path class="st0" d="M272.25,105.2c-0.21,12.99-3.96,29.22-14.42,43.23c-3.05,4.09-6.95,7.83-11.17,10.69
		c-10.53,7.13-22.23,5.28-30.7-4.23c-4.88-5.48-8.07-11.91-9.7-18.99c-5.92-25.74-2.62-49.93,14.37-70.79
		c14.75-18.12,35.27-15.09,45.42,5.95C270.21,79.68,272.24,89.47,272.25,105.2z"/>
	
		<linearGradient id="SVGID_00000172419764707854202330000011451785809225578406_" gradientUnits="userSpaceOnUse" x1="10.1572" y1="244.4463" x2="214.6746" y2="38.5654">
		<stop  offset="0" style="stop-color:#E34779"/>
		<stop  offset="1" style="stop-color:#F77A43"/>
	</linearGradient>
	<path style="fill:url(#SVGID_00000172419764707854202330000011451785809225578406_);" d="M179.79,115.56
		c-0.23,10.23-1.65,20.72-6.54,30.45c-1.05,2.09-2.24,4.15-3.62,6.03c-9.77,13.36-24.43,15.09-37,4.28
		c-9.44-8.12-14.83-18.78-18.1-30.53c-4.8-17.22-5.31-34.47,1.36-51.37c1.66-4.19,4.06-8.26,6.88-11.78
		c8.58-10.72,21.5-12.28,32.7-4.32c6.83,4.85,11.62,11.4,15.37,18.77C176.89,89.01,179.48,101.76,179.79,115.56z"/>
	
		<linearGradient id="SVGID_00000083783763878931783940000002352501309141837191_" gradientUnits="userSpaceOnUse" x1="19.0854" y1="253.3153" x2="223.6027" y2="47.4345">
		<stop  offset="0" style="stop-color:#E34779"/>
		<stop  offset="1" style="stop-color:#F77A43"/>
	</linearGradient>
	<path style="fill:url(#SVGID_00000083783763878931783940000002352501309141837191_);" d="M122.66,196.78
		c-1.46,6.34-2.23,12.95-4.5,18.99c-7.46,19.84-26.83,25.62-44.36,13.66c-21.13-14.42-31.35-47.4-22.1-71.29
		c7.46-19.25,26.23-25.5,43.5-14.13c15.25,10.04,22.59,25.13,25.73,42.59c0.59,3.27,0.69,6.63,1.01,9.96
		C122.19,196.63,122.42,196.71,122.66,196.78z"/>
	
		<linearGradient id="SVGID_00000183964006155329915120000001068225839128028587_" gradientUnits="userSpaceOnUse" x1="126.5523" y1="360.0705" x2="331.0697" y2="154.1897">
		<stop  offset="0" style="stop-color:#E34779"/>
		<stop  offset="1" style="stop-color:#F77A43"/>
	</linearGradient>
	<path style="fill:url(#SVGID_00000183964006155329915120000001068225839128028587_);" d="M261.61,196.53
		c0.59-18.01,6.37-33.91,19.33-46.79c2.35-2.33,5.06-4.4,7.87-6.16c16.8-10.54,35.35-4.56,42.6,13.89c6.57,16.72,4.31,33.09-3,48.98
		c-4.92,10.69-12.11,19.55-22.68,25.24c-15.24,8.19-31.04,3.25-38.96-12.15C263.06,212.33,261.6,204.61,261.61,196.53z"/>
</g>
<linearGradient id="SVGID_00000026879873997712461020000000772222350711919022_" gradientUnits="userSpaceOnUse" x1="118.8205" y1="352.39" x2="323.3379" y2="146.5091">
	<stop  offset="0" style="stop-color:#E34779"/>
	<stop  offset="1" style="stop-color:#F77A43"/>
</linearGradient>
<path style="fill:url(#SVGID_00000026879873997712461020000000772222350711919022_);" d="M256.36,236.01
	c-11.67-25.43-30.88-43.57-55.41-56.43c-1.13-0.59-2.4-1.93-3.63-1.11c-1.38,0.93-0.51,2.69-0.3,3.99
	c1.55,9.37,0.88,18.73-1.08,27.87c-3.73,17.39-14.44,29.09-30.79,35.88c-2.69,1.12-3.87,0.37-5.05-1.96
	c-3.38-6.67-4.76-13.83-5.51-21.15c-0.36-3.52-0.86-3.79-3.99-1.9c-3.28,1.97-6.09,4.56-9.15,6.83
	c-5.71,5.64-10.57,11.94-14.5,18.94c-4.18,7.45-7.52,15.35-8.34,23.83c-0.72,7.45-0.06,15.03,1.56,22.43
	c4.7,21.53,16.11,38.25,35.99,48.28c13.77,6.95,28.57,9.32,43.98,7.31c26.31-3.44,45.68-16.75,57.63-40.54
	c4.51-8.99,6.43-18.68,7.23-28.63c-0.17-3.9-0.23-7.81-0.52-11.7C263.67,256.82,260.99,246.11,256.36,236.01z"/>
</svg>
