<?xml version="1.0" encoding="utf-8"?>
<!-- Generator: Adobe Illustrator 26.5.0, SVG Export Plug-In . SVG Version: 6.00 Build 0)  -->
<svg version="1.1" id="Warstwa_1" xmlns="http://www.w3.org/2000/svg" xmlns:xlink="http://www.w3.org/1999/xlink" x="0px" y="0px"
	 viewBox="0 0 396.23 396.23" style="enable-background:new 0 0 396.23 396.23;" xml:space="preserve">
<style type="text/css">
	.st0{fill:url(#SVGID_1_);}
	.st1{fill:#FFFFFF;}
	.st2{fill:none;}
	.st3{fill:#FD5863;}
	.st4{fill:url(#SVGID_00000030450141244308200630000004575256193581072809_);}
	.st5{fill:url(#SVGID_00000084525741360812498930000007875272425004385978_);}
	.st6{fill:url(#SVGID_00000076583698192537222730000011493422922517936824_);}
	.st7{fill:url(#SVGID_00000054261953145590217960000016867812738989519537_);}
	.st8{fill:url(#SVGID_00000120549991185121782650000000432874308745007534_);}
	.st9{fill:url(#SVGID_00000105416240852160500990000002694728756583335819_);}
	.st10{fill:#F7F7F7;}
	.st11{fill:#F77A43;}
	.st12{fill:url(#SVGID_00000049217368731947779320000014140869014672457876_);}
	.st13{fill:url(#SVGID_00000151512886282573479090000010893391485505745321_);}
	.st14{fill:url(#SVGID_00000054231324157114645270000013370203019249667464_);}
	.st15{fill:url(#SVGID_00000148652326855875787380000011142333320491765900_);}
	.st16{fill:url(#SVGID_00000066479235489283685230000006856524549763482253_);}
	.st17{fill:url(#SVGID_00000086672825263082920870000012480713487494368447_);}
	.st18{fill:url(#SVGID_00000183955569291966397600000008062802662999052173_);}
	.st19{fill:url(#SVGID_00000052806671971093255970000007421657660644789401_);}
</style>
<linearGradient id="SVGID_1_" gradientUnits="userSpaceOnUse" x1="52.2464" y1="339.7177" x2="365.9279" y2="35.2082">
	<stop  offset="0" style="stop-color:#E34779"/>
	<stop  offset="1" style="stop-color:#F77A43"/>
</linearGradient>
<rect class="st0" width="396.23" height="396.23"/>
<g>
	<path class="st1" d="M251.71,137.68c-0.13,8.04-2.45,18.1-8.93,26.77c-1.89,2.53-4.3,4.85-6.92,6.62
		c-6.52,4.42-13.76,3.27-19.01-2.62c-3.02-3.39-5-7.37-6.01-11.76c-3.66-15.94-1.62-30.92,8.9-43.84
		c9.13-11.22,21.84-9.35,28.13,3.68C250.44,121.88,251.7,127.95,251.71,137.68z"/>
	<path class="st1" d="M194.44,144.1c-0.14,6.34-1.02,12.83-4.05,18.86c-0.65,1.3-1.39,2.57-2.24,3.74
		c-6.05,8.27-15.13,9.34-22.91,2.65c-5.84-5.03-9.18-11.63-11.21-18.91c-2.97-10.67-3.29-21.35,0.84-31.81
		c1.03-2.6,2.52-5.12,4.26-7.3c5.31-6.64,13.31-7.61,20.25-2.68c4.23,3,7.2,7.06,9.52,11.63
		C192.65,127.66,194.25,135.56,194.44,144.1z"/>
	<path class="st1" d="M159.06,194.4c-0.9,3.93-1.38,8.02-2.79,11.76c-4.62,12.28-16.62,15.87-27.47,8.46
		c-13.09-8.93-19.42-29.36-13.69-44.15c4.62-11.92,16.25-15.79,26.94-8.75c9.44,6.22,13.99,15.56,15.94,26.38
		c0.36,2.03,0.43,4.11,0.63,6.17C158.77,194.31,158.92,194.36,159.06,194.4z"/>
	<path class="st1" d="M245.12,194.25c0.37-11.15,3.94-21,11.97-28.98c1.45-1.45,3.13-2.72,4.87-3.81
		c10.41-6.53,21.89-2.82,26.38,8.6c4.07,10.35,2.67,20.5-1.86,30.33c-3.05,6.62-7.5,12.11-14.05,15.63
		c-9.44,5.07-19.22,2.01-24.13-7.53C246.02,204.03,245.11,199.25,245.12,194.25z"/>
</g>
<path class="st1" d="M241.87,218.7c-7.22-15.75-19.13-26.99-34.31-34.95c-0.7-0.37-1.49-1.2-2.25-0.69
	c-0.85,0.58-0.32,1.67-0.18,2.47c0.96,5.81,0.55,11.6-0.67,17.26c-2.31,10.77-8.94,18.01-19.07,22.22c-1.67,0.69-2.4,0.23-3.13-1.22
	c-2.09-4.13-2.95-8.56-3.41-13.1c-0.22-2.18-0.53-2.35-2.47-1.18c-2.03,1.22-3.77,2.82-5.67,4.23c-3.54,3.5-6.55,7.4-8.98,11.73
	c-2.59,4.61-4.66,9.51-5.16,14.76c-0.45,4.62-0.04,9.31,0.96,13.89c2.91,13.34,9.98,23.69,22.29,29.9c8.53,4.3,17.7,5.77,27.24,4.53
	c16.29-2.13,28.29-10.37,35.69-25.11c2.79-5.57,3.98-11.57,4.47-17.73c-0.1-2.41-0.14-4.83-0.32-7.24
	C246.4,231.59,244.74,224.95,241.87,218.7z"/>
</svg>
